Coordinates
version=1
nRows=14
nColumns=24
inDegrees=yes

Units are S.I. units (second, meters, Newtons, ...)
Angles are in degrees.

endheader
time	pelvis_tilt	pelvis_list	pelvis_rotation	pelvis_tx	pelvis_ty	pelvis_tz	hip_flexion_r	hip_adduction_r	hip_rotation_r	knee_angle_r	ankle_angle_r	subtalar_angle_r	mtp_angle_r	hip_flexion_l	hip_adduction_l	hip_rotation_l	knee_angle_l	ankle_angle_l	subtalar_angle_l	mtp_angle_l	lumbar_extension	lumbar_bending	lumbar_rotation
      3.72000000	    -13.00857082	      8.71896076	     -4.26405122	     -0.82312454	     -0.03846171	     -0.27780529	     15.12562611	    -14.35611112	     -7.97719392	    -58.64241644	    -27.07457344	    -17.25645332	     12.38406191	     32.25508856	      8.99256965	     -4.80886281	    -24.50758596	     -0.45533906	    -16.15024911	    -11.24939836	     10.57388350	     -8.34242708	      5.67468121
      3.72500000	    -12.94977112	      8.63388984	     -4.07855944	     -0.81553691	     -0.03695403	     -0.27835315	     16.08285349	    -14.26893656	     -7.98156894	    -59.65459561	    -25.94854000	    -18.03968933	     12.46210698	     31.45353881	      9.11848673	     -4.55949624	    -24.12090667	     -0.12049624	    -16.03659208	    -11.06161678	     10.44164384	     -8.29965450	      5.36657027
      3.73000000	    -12.96905604	      8.46896218	     -3.90940815	     -0.80800621	     -0.03549252	     -0.27886744	     17.11640415	    -14.07715168	     -7.97366135	    -60.56331529	    -24.71474437	    -18.49315145	     12.54301273	     30.74219052	      9.13946847	     -4.28481788	    -23.75696776	      0.22009773	    -15.89466294	    -10.82769099	     10.39155812	     -8.15958367	      5.08339391
      3.73500000	    -12.98854223	      8.24560125	     -3.75779590	     -0.80063207	     -0.03401048	     -0.27939130	     18.14860454	    -13.81849782	     -7.97015782	    -61.36843823	    -23.44888601	    -18.69605268	     12.65064922	     30.05282321	      9.09466820	     -4.00624304	    -23.41381435	      0.47490515	    -15.84772882	    -10.61538218	     10.31126865	     -7.94640538	      4.80636175
      3.74000000	    -12.98324921	      8.01635212	     -3.61462710	     -0.79318660	     -0.03248162	     -0.27991188	     19.12704606	    -13.56520909	     -8.00094047	    -62.04013382	    -22.26221713	    -18.76122804	     12.83505605	     29.30704098	      9.05001109	     -3.66604502	    -23.02522331	      0.72598901	    -15.83828963	    -10.45759028	     10.22497541	     -7.72173478	      4.54669522
      3.74500000	    -12.97013274	      7.76048018	     -3.47032765	     -0.78576814	     -0.03094449	     -0.28045487	     20.07527800	    -13.29133633	     -8.05527703	    -62.59886658	    -21.10394400	    -18.63284954	     13.11448336	     28.54881606	      8.98071022	     -3.29805218	    -22.62657756	      0.95846331	    -15.86041525	    -10.35636024	     10.12832304	     -7.46576755	      4.27976630
      3.75000000	    -12.95104326	      7.49391379	     -3.31827698	     -0.77837439	     -0.02942231	     -0.28101951	     20.99592751	    -13.01754265	     -8.13688143	    -63.05316793	    -19.96603385	    -18.33412945	     13.49262705	     27.78034922	      8.90338839	     -2.90618875	    -22.21561950	      1.17291776	    -15.90812328	    -10.30780696	     10.02323608	     -7.19486397	      4.01011974
      3.75500000	    -12.92294304	      7.25146385	     -3.14860739	     -0.77096273	     -0.02794748	     -0.28164715	     21.88724708	    -12.79820669	     -8.25502091	    -63.41620610	    -18.83164210	    -17.87096270	     14.03678881	     26.99178277	      8.86078702	     -2.48971516	    -21.77982702	      1.37843664	    -15.98726865	    -10.32214806	      9.91580560	     -6.94719277	      3.73782920
      3.76000000	    -12.88695637	      6.97023052	     -2.97318657	     -0.76359086	     -0.02646180	     -0.28227227	     22.73657962	    -12.53126401	     -8.38642732	    -63.65876113	    -17.74677745	    -17.33049914	     14.69806389	     26.18931375	      8.77340169	     -2.05716895	    -21.33293816	      1.58589840	    -16.05114509	    -10.39396876	      9.79509593	     -6.65733029	      3.45821885
      3.76500000	    -12.81570602	      6.67248712	     -2.79663420	     -0.75622856	     -0.02492498	     -0.28298716	     23.49448415	    -12.25288992	     -8.48848979	    -63.68388368	    -17.14226777	    -16.96601497	     17.77205308	     25.33524190	      8.68515902	     -1.55635943	    -20.87678232	      1.93358241	    -16.11286009	    -11.32142416	      9.63508790	     -6.33970779	      3.17097528
      3.77000000	    -12.79246936	      6.34772382	     -2.62201689	     -0.74897870	     -0.02352788	     -0.28355115	     24.32205980	    -11.92650216	     -8.65879449	    -63.74137309	    -16.07598496	    -16.38393775	     18.19310958	     24.56737645	      8.51427830	     -1.23320302	    -20.44509648	      2.15941037	    -16.07965846	    -11.33435472	      9.51300435	     -6.00334730	      2.87376686
      3.77500000	    -12.74390992	      6.03492005	     -2.41619492	     -0.74168846	     -0.02214680	     -0.28418434	     25.08236949	    -11.63540556	     -8.85256114	    -63.69687479	    -14.96524729	    -15.67647844	     18.76936316	     23.74901583	      8.37109190	     -0.84855657	    -19.96948063	      2.35722618	    -16.09159237	    -11.39193008	      9.37326530	     -5.68455866	      2.57086625
      3.78000000	    -12.59874810	      5.80966642	     -2.25793067	     -0.73434201	     -0.02070700	     -0.28489508	     25.72902233	    -11.44207813	     -8.96627368	    -63.52481422	    -14.03635963	    -15.02524123	     20.48004772	     22.77140506	      8.32997501	     -0.40271121	    -19.37949443	      2.46983979	    -16.32227440	    -11.86153955	      9.14935125	     -5.43452089	      2.35163602
      3.78500000	    -12.60264317	      5.43225455	     -1.97891367	     -0.72710837	     -0.01950762	     -0.28556338	     26.46990356	    -11.10513317	     -9.27538501	    -63.27832199	    -13.00692116	    -14.45204524	     21.14383089	     22.04453156	      8.09858249	     -0.09102915	    -18.96716839	      2.84701533	    -16.04404082	    -11.85367706	      9.05667625	     -5.06444903	      1.99312025
